<?xml version="1.0" encoding="UTF-8" standalone="no"?>
<svg
   xmlns:dc="http://purl.org/dc/elements/1.1/"
   xmlns:cc="http://creativecommons.org/ns#"
   xmlns:rdf="http://www.w3.org/1999/02/22-rdf-syntax-ns#"
   xmlns:svg="http://www.w3.org/2000/svg"
   xmlns="http://www.w3.org/2000/svg"
   viewBox="0 0 626.93335 756.50665"
   height="756.50665"
   width="626.93335"
   xml:space="preserve"
   id="svg2"
   version="1.1"><metadata
     id="metadata8"><rdf:RDF><cc:Work
         rdf:about=""><dc:format>image/svg+xml</dc:format><dc:type
           rdf:resource="http://purl.org/dc/dcmitype/StillImage" /></cc:Work></rdf:RDF></metadata><defs
     id="defs6" /><g
     transform="matrix(1.3333333,0,0,-1.3333333,0,756.50667)"
     id="g10"><g
       transform="scale(0.1)"
       id="g12"><path
         id="path14"
         style="fill:#4e96d7;fill-opacity:1;fill-rule:nonzero;stroke:none"
         d="M 340.039,2350.1 2001.78,4011.84 c -0.05,0.04 -0.09,0.09 -0.13,0.13 215.26,212.99 348.7,508.5 348.7,835.25 0,322.34 -129.87,614.29 -340.04,826.61 L 348.57,4012.09 c 0.039,-0.04 0.078,-0.08 0.118,-0.12 C 133.441,3798.96 0,3503.46 0,3176.71 0,2854.36 129.871,2562.42 340.039,2350.1" /><path
         id="path16"
         style="fill:#4e96d7;fill-opacity:1;fill-rule:nonzero;stroke:none"
         d="M 4361.95,3324.37 2700.06,1662.48 c 0.04,-0.04 0.07,-0.09 0.11,-0.13 -215.26,-213.02 -348.71,-508.55 -348.71,-835.319 0,-322.383 129.88,-614.359 340.06,-826.691156 L 4353.41,1662.23 c -0.04,0.04 -0.08,0.09 -0.12,0.12 215.27,213.02 348.73,508.55 348.73,835.33 0,322.37 -129.89,614.35 -340.07,826.69" /><path
         id="path18"
         style="fill:#4e96d7;fill-opacity:1;fill-rule:nonzero;stroke:none"
         d="m 4352.3,4012.03 c -0.05,0.04 -0.09,0.09 -0.13,0.13 215.19,212.93 348.59,508.34 348.59,834.99 0,322.24 -129.83,614.09 -339.93,826.35 L 348.797,1661.46 c 0.039,-0.04 0.074,-0.08 0.113,-0.12 C 133.734,1448.41 0.335938,1152.99 0.335938,826.352 0.335938,504.102 130.164,212.25 340.266,0 L 4352.3,4012.03" /></g></g></svg>